<svg width="25" height="19" viewBox="0 0 25 19" fill="none" xmlns="http://www.w3.org/2000/svg">
<g clip-path="url(#clip0)">
<path d="M1.78272 17.1808C1.72872 17.1808 1.67472 17.1488 1.62672 17.0998L10.6257 10.6058L11.5737 11.2888C11.5957 11.3058 11.6217 11.3118 11.6457 11.3258C11.6687 11.3388 11.6907 11.3498 11.7147 11.3608C11.8107 11.4028 11.9097 11.4308 12.0107 11.4308H12.0117H12.0127C12.1137 11.4308 12.2127 11.4028 12.3087 11.3608C12.3327 11.3498 12.3547 11.3388 12.3777 11.3258C12.4017 11.3118 12.4277 11.3058 12.4497 11.2888L13.3967 10.6058L22.3967 17.0998C22.3487 17.1488 22.2947 17.1808 22.2407 17.1808H1.78272ZM1.51172 15.3338V4.02779L9.34472 9.68079L1.51172 15.3338ZM22.2407 2.18079C22.2947 2.18079 22.3487 2.21279 22.3967 2.26179L12.0117 9.75579L1.62672 2.26179C1.67472 2.21279 1.72872 2.18079 1.78272 2.18079H22.2407ZM14.6787 9.68079L22.5117 4.02779V15.3338L14.6787 9.68079ZM22.2407 0.680786H1.78272C0.805719 0.680786 0.0117188 1.52479 0.0117188 2.56179V16.7998C0.0117188 17.8368 0.805719 18.6808 1.78272 18.6808H22.2407C23.2177 18.6808 24.0117 17.8368 24.0117 16.7998V2.56179C24.0117 1.52479 23.2177 0.680786 22.2407 0.680786Z" fill="#E64E6C"/>
</g>
<defs>
<clipPath id="clip0">
<rect width="24" height="18" fill="white" transform="translate(0.0117188 0.680786)"/>
</clipPath>
</defs>
</svg>
