<svg width="24" height="23" viewBox="0 0 24 23" fill="none" xmlns="http://www.w3.org/2000/svg">
<g clip-path="url(#clip0)">
<path d="M12.0117 1.53794C15.1117 1.54494 17.6307 4.06994 17.6307 7.17194C17.6307 8.63494 16.9787 9.87094 16.4247 10.6559C16.4227 10.6579 16.4207 10.6599 16.4187 10.6629L12.0117 16.6589L7.60472 10.6629C7.60272 10.6609 7.60072 10.6589 7.59872 10.6559C7.53872 10.5709 7.47772 10.4789 7.41672 10.3839C7.41272 10.3729 7.41372 10.3619 7.40872 10.3519C7.39272 10.3199 7.36572 10.2999 7.34672 10.2709C6.86372 9.49394 6.39272 8.41694 6.39272 7.17194C6.39272 4.06994 8.91173 1.54494 12.0117 1.53794ZM16.6627 21.1999L15.9147 13.8809L16.6537 12.8759L20.8787 10.8109L22.4097 18.7369L16.6627 21.1999ZM8.32473 18.5919L8.72073 14.7159L11.3947 18.3529C11.5367 18.5449 11.7867 18.6589 12.0247 18.6589C12.2627 18.6589 12.4877 18.5449 12.6287 18.3529L15.0337 15.0819L15.6567 21.1809L8.32473 18.5919ZM3.25872 13.2159L6.46672 11.6479L7.83972 13.5159L7.32472 18.5609L1.76672 20.9429L3.25872 13.2159ZM23.9137 19.5359C23.9367 19.4919 23.9557 19.4499 23.9697 19.4039C23.9837 19.3599 23.9907 19.3159 23.9957 19.2679C24.0017 19.2169 24.0027 19.1679 23.9977 19.1159C23.9947 19.0929 24.0027 19.0699 23.9977 19.0469L22.1667 9.56494C22.1597 9.52994 22.1397 9.50394 22.1287 9.47094C22.1187 9.43994 22.1187 9.40694 22.1047 9.37694C22.0967 9.36194 22.0837 9.35294 22.0747 9.33894C22.0467 9.28894 22.0107 9.24694 21.9727 9.20494C21.9457 9.17594 21.9217 9.14594 21.8907 9.12194C21.8467 9.08794 21.7997 9.06394 21.7497 9.03994C21.7107 9.02094 21.6747 9.00194 21.6337 8.99094C21.5887 8.97894 21.5437 8.97594 21.4967 8.97194C21.4427 8.96694 21.3907 8.96394 21.3367 8.97094C21.3197 8.97294 21.3047 8.96694 21.2887 8.96994C21.2557 8.97594 21.2297 8.99594 21.1997 9.00694C21.1677 9.01794 21.1337 9.01694 21.1027 9.03294L18.3267 10.3899C18.7687 9.51094 19.1317 8.41794 19.1317 7.17294C19.1317 3.25194 15.9527 0.0589404 12.0377 0.0389404C12.0277 0.0389404 12.0197 0.0389404 12.0127 0.0389404C12.0047 0.0389404 11.9967 0.0389404 11.9877 0.0389404C8.07173 0.0589404 4.89272 3.25094 4.89272 7.17194C4.89272 8.40294 5.24772 9.48694 5.68372 10.3609L2.26472 12.0319C2.25073 12.0389 2.24172 12.0519 2.22872 12.0599C2.17672 12.0889 2.13372 12.1249 2.08972 12.1659C2.06072 12.1939 2.03072 12.2189 2.00672 12.2499C1.97572 12.2899 1.95372 12.3349 1.93072 12.3809C1.90972 12.4249 1.88972 12.4669 1.87672 12.5149C1.87172 12.5329 1.85972 12.5459 1.85672 12.5639L0.0257248 22.0459C0.0217248 22.0699 0.0287248 22.0919 0.0267248 22.1159C0.0217248 22.1669 0.0227248 22.2169 0.0277248 22.2679C0.0337248 22.3179 0.0427248 22.3659 0.0577248 22.4129C0.0647248 22.4359 0.0627248 22.4599 0.0727248 22.4829C0.0857248 22.5119 0.105725 22.5349 0.121725 22.5619C0.135725 22.5849 0.147725 22.6089 0.164725 22.6309C0.210725 22.6939 0.265725 22.7489 0.327725 22.7939C0.335725 22.7999 0.341725 22.8079 0.349725 22.8129C0.423725 22.8619 0.506725 22.8929 0.593725 22.9139C0.603725 22.9159 0.610725 22.9229 0.619725 22.9249C0.666725 22.9339 0.713725 22.9379 0.759725 22.9379C0.760725 22.9379 0.760725 22.9379 0.761725 22.9379C0.761725 22.9379 0.761725 22.9379 0.762725 22.9379C0.858725 22.9379 0.950725 22.9159 1.03672 22.8819C1.04372 22.8789 1.05072 22.8809 1.05772 22.8779L7.78872 19.9929L16.0117 22.8949C16.0177 22.8969 16.0227 22.8959 16.0287 22.8979C16.1037 22.9219 16.1817 22.9379 16.2617 22.9379C16.3537 22.9379 16.4417 22.9159 16.5267 22.8839C16.5367 22.8799 16.5477 22.8819 16.5577 22.8779L23.5577 19.8779C23.5797 19.8679 23.5947 19.8499 23.6157 19.8379C23.6597 19.8139 23.6997 19.7859 23.7377 19.7529C23.7747 19.7219 23.8077 19.6899 23.8377 19.6529C23.8677 19.6159 23.8917 19.5779 23.9137 19.5359Z" fill="#E64E6C"/>
<path d="M12.0115 5.00891C13.2015 5.00891 14.1705 5.97891 14.1705 7.17191C14.1705 8.36491 13.2015 9.33491 12.0115 9.33491C10.8215 9.33491 9.85254 8.36491 9.85254 7.17191C9.85254 5.97891 10.8215 5.00891 12.0115 5.00891ZM12.0115 10.3349C13.7535 10.3349 15.1705 8.91591 15.1705 7.17191C15.1705 5.42791 13.7535 4.00891 12.0115 4.00891C10.2695 4.00891 8.85254 5.42791 8.85254 7.17191C8.85254 8.91591 10.2695 10.3349 12.0115 10.3349Z" fill="#E64E6C"/>
</g>
<defs>
<clipPath id="clip0">
<rect width="23.978" height="22.9" fill="white" transform="translate(0.0224609 0.0379639)"/>
</clipPath>
</defs>
</svg>
