<svg width="25" height="25" viewBox="0 0 25 25" fill="none" xmlns="http://www.w3.org/2000/svg">
<g clip-path="url(#clip0)">
<path d="M18.5446 22.7539C18.4346 22.8609 17.5566 22.9799 15.2386 21.5849C13.1646 20.3349 10.7176 18.3419 8.3476 15.9729C5.9786 13.6039 3.98561 11.1569 2.73561 9.08187C1.3396 6.76287 1.45861 5.88487 1.56661 5.77687L4.34361 2.99987C4.7136 3.15087 5.5416 3.68787 6.53461 4.67987C7.52761 5.67287 8.0626 6.50187 8.21461 6.87087L6.92261 8.16387C5.53861 9.54987 7.30261 12.5729 9.52561 14.7959C11.7496 17.0209 14.7736 18.7829 16.1576 17.3999L17.4496 16.1079C17.8186 16.2589 18.6476 16.7939 19.6406 17.7879C20.6326 18.7809 21.1686 19.6089 21.3206 19.9789L18.5446 22.7539ZM20.7016 16.7259C19.5836 15.6069 17.5596 13.8759 16.5806 14.8539L15.0976 16.3379C14.8516 16.5769 12.9196 16.0679 10.5866 13.7339C8.25261 11.4009 7.73761 9.46787 7.9836 9.22287L9.46761 7.74087C10.4456 6.76287 8.71461 4.73887 7.5956 3.61987C6.89561 2.91987 6.16461 2.32287 5.53861 1.93987C5.19261 1.72687 4.1406 1.08187 3.47461 1.74787L0.506605 4.71587C-0.384395 5.60687 -0.0663949 7.33587 1.45161 9.85587C2.76261 12.0319 4.83461 14.5809 7.28761 17.0339C9.74061 19.4869 12.2896 21.5589 14.4656 22.8699C16.0556 23.8279 17.3306 24.3089 18.2786 24.3089C18.8336 24.3089 19.2766 24.1449 19.6046 23.8159L22.5736 20.8469C23.2376 20.1829 22.5936 19.1299 22.3816 18.7829C21.9986 18.1569 21.4016 17.4259 20.7016 16.7259Z" fill="#E64E6C"/>
<path d="M21.4775 2.84391C19.8445 1.20991 17.6705 0.310913 15.3565 0.310913C15.3555 0.310913 15.3545 0.310913 15.3545 0.310913C14.9405 0.310913 14.6045 0.646913 14.6045 1.06091C14.6045 1.47491 14.9405 1.81091 15.3545 1.81091C15.3555 1.81091 15.3555 1.81091 15.3565 1.81091C17.2695 1.81091 19.0665 2.55391 20.4165 3.90491C21.7665 5.25591 22.5105 7.05191 22.5105 8.96691C22.5105 9.38091 22.8465 9.71691 23.2605 9.71691C23.6745 9.71691 24.0105 9.38091 24.0105 8.96691C24.0115 6.65191 23.1105 4.47791 21.4775 2.84391Z" fill="#E64E6C"/>
<path d="M14.3652 4.77686C14.3662 4.77686 14.3662 4.77686 14.3672 4.77686C15.7522 4.77686 17.0522 5.31486 18.0292 6.29186C19.0062 7.26986 19.5442 8.56986 19.5442 9.95586C19.5442 10.3699 19.8802 10.7059 20.2942 10.7059C20.7082 10.7059 21.0442 10.3699 21.0442 9.95586C21.0452 8.16986 20.3512 6.49186 19.0902 5.23086C17.8292 3.97086 16.1522 3.27686 14.3672 3.27686C14.3662 3.27686 14.3652 3.27686 14.3652 3.27686C13.9512 3.27686 13.6152 3.61286 13.6152 4.02686C13.6152 4.44086 13.9512 4.77686 14.3652 4.77686Z" fill="#E64E6C"/>
<path d="M13.3769 7.7429C13.3779 7.7429 13.3779 7.7429 13.3789 7.7429C14.2339 7.7429 15.0389 8.0759 15.6429 8.6799C16.2479 9.2839 16.5799 10.0889 16.5799 10.9459C16.5799 11.3599 16.9159 11.6959 17.3299 11.6959C17.7439 11.6959 18.0799 11.3599 18.0799 10.9459C18.0809 9.6889 17.5919 8.5069 16.7039 7.6199C15.8169 6.7319 14.6369 6.2439 13.3799 6.2439C13.3789 6.2439 13.3779 6.2439 13.3779 6.2439C12.9639 6.2439 12.6279 6.5799 12.6279 6.9939C12.6269 7.4069 12.9629 7.7429 13.3769 7.7429Z" fill="#E64E6C"/>
</g>
<defs>
<clipPath id="clip0">
<rect width="23.997" height="23.997" fill="white" transform="translate(0.0136719 0.310913)"/>
</clipPath>
</defs>
</svg>
