<svg width="28" height="28" viewBox="0 0 28 28" fill="none" xmlns="http://www.w3.org/2000/svg">
<g clip-path="url(#clip0)">
<path fill-rule="evenodd" clip-rule="evenodd" d="M28 13.9995C28 21.7316 21.7321 27.9995 14 27.9995C6.26795 27.9995 1.14441e-05 21.7316 1.14441e-05 13.9995C1.14441e-05 6.26745 6.26795 -0.000488281 14 -0.000488281C21.7321 -0.000488281 28 6.26745 28 13.9995Z" fill="#F7931A"/>
<path fill-rule="evenodd" clip-rule="evenodd" d="M17.333 18.0909C17.2164 18.4847 16.9541 18.8092 16.5944 19.0047C16.2347 19.2004 15.821 19.2435 15.4291 19.1262L11.5062 17.952L12.3802 15.0032L16.3028 16.1775H16.303C17.1118 16.4196 17.574 17.2779 17.333 18.0909ZM18.6561 12.0478C18.8505 12.4093 18.8934 12.8251 18.7768 13.219C18.5359 14.0317 17.6814 14.496 16.873 14.2543H16.8728L12.9501 13.0802L13.8238 10.1313L17.7467 11.3055C18.1386 11.4228 18.4615 11.6863 18.6561 12.0478ZM20.4121 11.093C19.9637 10.2601 19.2194 9.65253 18.3166 9.38233L17.7975 9.22707L18.5242 6.77511L16.6599 6.21707L15.9332 8.66903L14.3416 8.19261L15.0683 5.74065L14.6217 5.60695L12.8124 5.06543L12.112 7.42891L9.90712 6.76895L9.28485 8.86895L11.4897 9.52905L9.22453 17.1728L7.01963 16.5128L6.39737 18.613L8.60212 19.2728L8.01106 21.2676L8.45753 21.4013L10.2668 21.9429L10.8842 19.8595L12.4796 20.3371L11.8622 22.4205L13.719 22.9763L14.3364 20.8929L14.8591 21.0492C15.1923 21.1489 15.5326 21.1983 15.8708 21.1983C16.4489 21.1983 17.0216 21.054 17.5444 20.7697C18.3731 20.319 18.9776 19.5711 19.2466 18.6635C19.5294 17.7088 19.3898 16.7281 18.94 15.9209C19.7566 15.4926 20.4073 14.7469 20.6903 13.7918C20.9593 12.8842 20.8604 11.9257 20.4121 11.093Z" fill="white"/>
</g>
<defs>
<clipPath id="clip0">
<rect width="28" height="28" fill="white"/>
</clipPath>
</defs>
</svg>
